<?xml version="1.0" standalone="no"?>
<!DOCTYPE svg PUBLIC "-//W3C//DTD SVG 20010904//EN"
 "http://www.w3.org/TR/2001/REC-SVG-20010904/DTD/svg10.dtd">
<svg version="1.0" xmlns="http://www.w3.org/2000/svg"
 width="639.000000pt" height="639.000000pt" viewBox="0 0 639.000000 639.000000"
 preserveAspectRatio="xMidYMid meet">
<metadata>
Created by potrace 1.11, written by Peter Selinger 2001-2013
</metadata>
<g transform="translate(0.000000,639.000000) scale(0.100000,-0.100000)"
fill="#000000" stroke="none">
<path d="M530 3195 l0 -3195 2660 0 2660 0 0 3195 0 3195 -2660 0 -2660 0 0
-3195z m2565 2680 c666 -81 1053 -416 1189 -1029 36 -161 46 -285 46 -580 0
-359 -24 -572 -90 -803 -89 -311 -258 -563 -479 -712 l-61 -42 16 -37 c49
-117 814 -2030 814 -2035 0 -4 -228 -7 -507 -7 l-508 0 -143 403 c-78 221
-230 647 -336 947 l-194 545 -63 0 -64 0 -3 -947 -2 -948 -470 0 -470 0 0
2636 0 2637 593 -6 c471 -4 621 -9 732 -22z"/>
<path d="M2717 5144 c-4 -4 -7 -428 -7 -942 l0 -935 103 7 c330 21 463 127
528 421 20 91 22 135 26 494 3 253 1 428 -6 488 -33 277 -151 408 -406 451
-85 15 -230 24 -238 16z"/>
</g>
</svg>
